<svg xmlns="http://www.w3.org/2000/svg" width="100" height="100" viewBox="0 0 100 100"><g fill="#231F20"><path d="M6.474 43.562l5.665 3.327c1.5-18.41 16.168-33.14 34.55-34.736L50 6 45.95.177C20.97 2.182 1.174 22.53.056 47.75l6.417-4.188zM56.44 6.474l-3.33 5.664c18.41 1.5 33.142 16.17 34.736 34.552L94 50l5.822-4.05C97.818 20.972 77.47 1.176 52.252.057l4.187 6.417zM93.526 56.438l-5.664-3.327c-1.5 18.41-16.17 33.142-34.552 34.736L50 94l4.05 5.822c24.98-2.004 44.774-22.353 45.894-47.57l-6.418 4.186zM43.562 93.526l3.327-5.664c-18.41-1.5-33.142-16.17-34.736-34.552L6 50 .177 54.05C2.182 79.028 22.53 98.825 47.75 99.943l-4.188-6.417z"/></g></svg>